<?xml version="1.0" encoding="utf-8"?>
<!-- Generator: Adobe Illustrator 17.0.0, SVG Export Plug-In . SVG Version: 6.00 Build 0)  -->
<!DOCTYPE svg PUBLIC "-//W3C//DTD SVG 1.1//EN" "http://www.w3.org/Graphics/SVG/1.1/DTD/svg11.dtd">
<svg version="1.1" id="Layer_1" xmlns="http://www.w3.org/2000/svg" xmlns:xlink="http://www.w3.org/1999/xlink" x="0px" y="0px"
	 width="150px" height="150px" viewBox="0 0 150 150" enable-background="new 0 0 150 150" xml:space="preserve">
<g>
	<rect x="34.39" y="34.203" opacity="0.5" fill="#9E1F63" width="17.612" height="48.566"/>
	
		<rect x="30.238" y="52.333" transform="matrix(0.866 -0.5 0.5 0.866 -33.0771 29.7867)" opacity="0.5" fill="#92278F" width="17.612" height="48.566"/>
	
		<rect x="35.708" y="70.109" transform="matrix(0.5 -0.866 0.866 0.5 -59.4895 85.7464)" opacity="0.5" fill="#662D91" width="17.612" height="48.566"/>
	<rect x="33.856" y="98.247" opacity="0.5" fill="#BE1E2D" width="48.566" height="17.612"/>
	
		<rect x="67.463" y="86.921" transform="matrix(-0.5 -0.866 0.866 -0.5 18.0976 232.8567)" opacity="0.5" fill="#3C2415" width="17.612" height="48.566"/>
	
		<rect x="85.239" y="81.451" transform="matrix(-0.866 -0.5 0.5 -0.866 122.6236 244.3256)" opacity="0.5" fill="#1C75BC" width="17.612" height="48.566"/>
	<rect x="97.899" y="67.826" opacity="0.5" fill="#EC008C" width="17.612" height="48.566"/>
	
		<rect x="102.051" y="49.696" transform="matrix(-0.866 0.5 -0.5 -0.866 243.851 82.6192)" opacity="0.5" fill="#9E1F63" width="17.612" height="48.566"/>
	
		<rect x="96.581" y="31.92" transform="matrix(-0.5 0.866 -0.866 -0.5 206.7536 -6.9633)" opacity="0.5" fill="#262262" width="17.612" height="48.566"/>
	<rect x="67.479" y="34.737" opacity="0.5" fill="#00A79D" width="48.566" height="17.612"/>
	
		<rect x="64.826" y="15.108" transform="matrix(0.5 0.866 -0.866 0.5 70.9301 -44.0715)" opacity="0.5" fill="#262262" width="17.612" height="48.566"/>
	
		<rect x="47.05" y="20.578" transform="matrix(0.866 0.5 -0.5 0.866 29.9138 -21.9175)" opacity="0.5" fill="#006838" width="17.612" height="48.566"/>

		<animateTransform attributeName="transform"
                  attributeType="XML"
                  type="rotate"
                  from="0 75 75"
                  to="360 75 75"
                  dur="1.5s"
                  repeatCount="indefinite"/>
</g>
</svg>
